<?xml version="1.0" standalone="no"?>
<!DOCTYPE svg PUBLIC "-//W3C//DTD SVG 20010904//EN"
 "http://www.w3.org/TR/2001/REC-SVG-20010904/DTD/svg10.dtd">
<svg version="1.0" xmlns="http://www.w3.org/2000/svg"
 width="500.000000pt" height="500.000000pt" viewBox="0 0 500.000000 500.000000"
 preserveAspectRatio="xMidYMid meet">

<g transform="translate(0.000000,500.000000) scale(0.100000,-0.100000)"
fill="#000000" stroke="none">
<path d="M1107 3072 l-217 -217 0 -371 0 -371 98 -6 c53 -4 253 -7 445 -7 331
0 347 1 347 19 0 16 -11 19 -82 24 -46 4 -234 7 -419 7 l-336 0 -6 173 c-4 94
-7 246 -7 337 l0 165 193 192 c105 106 196 196 200 200 4 4 99 -84 211 -196
180 -180 204 -201 216 -186 12 14 -12 42 -206 236 l-219 219 -218 -218z"/>
<path d="M1290 2535 l0 -185 25 0 25 0 0 185 0 185 -25 0 -25 0 0 -185z"/>
<path d="M1420 2535 l0 -185 25 0 25 0 1 133 1 132 36 -132 c36 -130 37 -133
64 -133 l28 0 0 185 0 185 -25 0 c-24 0 -24 -1 -27 -107 l-3 -108 -29 108 -29
107 -33 0 -34 0 0 -185z"/>
<path d="M1697 2703 c-41 -46 -29 -118 29 -174 69 -66 82 -134 26 -127 -21 2
-28 9 -30 31 -3 21 -9 27 -28 27 -20 0 -24 -5 -24 -30 0 -93 145 -110 165 -20
11 48 -3 84 -51 134 -64 68 -78 115 -37 130 18 7 43 -10 43 -30 0 -18 15 -25
35 -18 12 5 15 14 10 33 -11 43 -34 61 -80 61 -27 0 -47 -6 -58 -17z"/>
<path d="M1894 2705 c-9 -22 4 -35 37 -35 l29 0 0 -160 0 -160 25 0 25 0 0
160 0 160 30 0 c25 0 30 4 30 25 0 25 -1 25 -85 25 -66 0 -87 -3 -91 -15z"/>
<path d="M2147 2543 c-15 -98 -27 -182 -27 -186 0 -5 10 -7 23 -5 17 2 23 11
25 36 3 30 6 32 42 32 39 0 50 -11 50 -51 0 -14 7 -19 25 -19 31 0 31 -4 -2
203 l-26 167 -41 0 -41 0 -28 -177z m88 -15 l7 -58 -32 0 c-25 0 -30 4 -27 18
3 9 8 40 12 67 3 28 9 61 13 75 5 24 6 23 13 -10 4 -19 11 -61 14 -92z"/>
<path d="M2380 2535 l0 -185 75 0 c73 0 75 1 75 24 0 23 -5 25 -47 28 l-48 3
-3 158 -3 157 -24 0 -25 0 0 -185z"/>
<path d="M2770 2535 l0 -185 25 0 25 0 0 185 0 185 -25 0 -25 0 0 -185z"/>
<path d="M2900 2536 l0 -186 25 0 25 0 0 133 c0 75 4 126 9 117 4 -8 18 -53
30 -100 38 -145 40 -150 67 -150 l24 0 0 185 c0 178 -1 185 -20 185 -19 0 -20
-7 -20 -107 0 -58 -3 -103 -7 -99 -4 4 -19 51 -33 104 l-26 97 -37 3 -37 3 0
-185z"/>
<path d="M3150 2695 c0 -21 5 -25 30 -25 l30 0 0 -160 0 -160 25 0 25 0 0 160
0 160 30 0 c25 0 30 4 30 25 0 25 -1 25 -85 25 -84 0 -85 0 -85 -25z"/>
<path d="M3380 2535 l0 -185 80 0 c79 0 80 0 80 25 0 23 -3 25 -50 25 l-50 0
0 60 0 60 40 0 c33 0 40 3 40 20 0 17 -7 20 -40 20 l-40 0 0 55 0 55 50 0 c47
0 50 2 50 25 0 25 -1 25 -80 25 l-80 0 0 -185z"/>
<path d="M3644 2712 c-27 -18 -34 -56 -34 -182 0 -126 1 -132 25 -155 30 -31
83 -33 116 -6 22 17 24 27 24 102 l0 83 -27 -1 c-47 -2 -48 -2 -48 -23 0 -11
7 -20 16 -20 12 0 14 -10 12 -52 -3 -47 -6 -53 -27 -56 -13 -2 -28 2 -32 10
-5 7 -9 65 -9 129 0 94 3 119 16 130 23 19 48 -1 52 -40 3 -26 7 -31 29 -31
24 0 25 2 20 41 -7 56 -31 79 -81 79 -23 0 -46 -4 -52 -8z"/>
<path d="M3850 2535 l0 -185 30 0 30 0 0 80 c0 44 2 80 4 80 3 0 16 -4 30 -10
23 -8 25 -15 28 -77 3 -65 4 -68 29 -71 l26 -3 -4 73 c-3 40 -11 83 -19 95
-11 18 -11 23 1 33 10 8 15 32 15 71 0 82 -18 99 -105 99 l-65 0 0 -185z m118
87 c4 -47 -10 -72 -39 -72 -17 0 -19 8 -19 61 0 60 0 60 28 57 24 -3 27 -7 30
-46z"/>
<path d="M4116 2553 c-31 -201 -31 -203 -7 -203 20 0 31 18 31 51 0 15 7 19
39 19 36 0 39 -2 45 -35 6 -29 11 -35 31 -35 31 0 31 -8 -3 200 l-27 165 -41
3 -41 3 -27 -168z m93 -65 c1 -14 -7 -18 -30 -18 -30 0 -31 2 -25 33 3 17 8
52 12 77 10 77 16 77 30 0 7 -41 13 -83 13 -92z"/>
<path d="M4350 2535 l0 -185 75 0 c73 0 75 1 75 25 0 23 -3 25 -50 25 l-50 0
0 160 0 160 -25 0 -25 0 0 -185z"/>
<path d="M2590 2535 c0 -23 3 -25 50 -25 47 0 50 2 50 25 0 23 -3 25 -50 25
-47 0 -50 -2 -50 -25z"/>
</g>
</svg>
